<svg width="46" height="46" viewBox="0 0 46 46" fill="none" xmlns="http://www.w3.org/2000/svg">
<g clip-path="url(#clip0_1326_4829)">
<path d="M34.4997 24.9167H24.9163V34.5C24.9163 35.5542 24.0538 36.4167 22.9997 36.4167C21.9455 36.4167 21.083 35.5542 21.083 34.5V24.9167H11.4997C10.4455 24.9167 9.58301 24.0542 9.58301 23C9.58301 21.9458 10.4455 21.0833 11.4997 21.0833H21.083V11.5C21.083 10.4458 21.9455 9.58333 22.9997 9.58333C24.0538 9.58333 24.9163 10.4458 24.9163 11.5V21.0833H34.4997C35.5538 21.0833 36.4163 21.9458 36.4163 23C36.4163 24.0542 35.5538 24.9167 34.4997 24.9167Z" fill="#C5FFF3"/>
</g>
<defs>
<clipPath id="clip0_1326_4829">
<rect width="46" height="46" fill="white"/>
</clipPath>
</defs>
</svg>
