<svg width="16" height="16" viewBox="0 0 16 16" fill="none" xmlns="http://www.w3.org/2000/svg">
<g clip-path="url(#clip0_1407_7969)">
<path d="M3.33302 8.66718H10.7797L7.52635 11.9205C7.26635 12.1805 7.26635 12.6072 7.52635 12.8672C7.78635 13.1272 8.20635 13.1272 8.46635 12.8672L12.8597 8.47384C13.1197 8.21384 13.1197 7.79384 12.8597 7.53384L8.47302 3.13384C8.21302 2.87384 7.79302 2.87384 7.53302 3.13384C7.27302 3.39384 7.27302 3.81384 7.53302 4.07384L10.7797 7.33384L3.33302 7.33384C2.96635 7.33384 2.66635 7.63384 2.66635 8.00051C2.66635 8.36718 2.96635 8.66718 3.33302 8.66718Z" fill="#F5F5FF"/>
</g>
<defs>
<clipPath id="clip0_1407_7969">
<rect width="16" height="16" fill="white" transform="matrix(0 1 -1 0 16 0)"/>
</clipPath>
</defs>
</svg>
