<svg width="33" height="32" viewBox="0 0 33 32" fill="none" xmlns="http://www.w3.org/2000/svg">
<g clip-path="url(#clip0_2946_11237)">
<path d="M22.6682 12H20.5482V5.33333C20.5482 4.6 19.9482 4 19.2148 4H13.8815C13.1482 4 12.5482 4.6 12.5482 5.33333V12H10.4282C9.24151 12 8.64151 13.44 9.48151 14.28L15.6015 20.4C16.1215 20.92 16.9615 20.92 17.4815 20.4L23.6015 14.28C24.4415 13.44 23.8548 12 22.6682 12ZM7.21484 25.3333C7.21484 26.0667 7.81484 26.6667 8.54818 26.6667H24.5482C25.2815 26.6667 25.8815 26.0667 25.8815 25.3333C25.8815 24.6 25.2815 24 24.5482 24H8.54818C7.81484 24 7.21484 24.6 7.21484 25.3333Z" fill="#060606"/>
</g>
<defs>
<clipPath id="clip0_2946_11237">
<rect width="32" height="32" fill="white" transform="translate(0.54834)"/>
</clipPath>
</defs>
</svg>
