<svg width="19" height="12" viewBox="0 0 19 12" fill="none" xmlns="http://www.w3.org/2000/svg">
<path d="M1.00877 12H17.1491C17.7039 12 18.1579 11.55 18.1579 11C18.1579 10.45 17.7039 10 17.1491 10H1.00877C0.453947 10 0 10.45 0 11C0 11.55 0.453947 12 1.00877 12ZM1.00877 7H17.1491C17.7039 7 18.1579 6.55 18.1579 6C18.1579 5.45 17.7039 5 17.1491 5H1.00877C0.453947 5 0 5.45 0 6C0 6.55 0.453947 7 1.00877 7ZM0 1C0 1.55 0.453947 2 1.00877 2H17.1491C17.7039 2 18.1579 1.55 18.1579 1C18.1579 0.45 17.7039 0 17.1491 0H1.00877C0.453947 0 0 0.45 0 1Z" fill="#000D76"/>
</svg>
