<svg width="25" height="24" viewBox="0 0 25 24" fill="none" xmlns="http://www.w3.org/2000/svg">
<g clip-path="url(#clip0_1883_636)">
<path d="M19.4591 17.29L18.1578 16V11C18.1578 7.93 16.5034 5.36 13.6183 4.68V4C13.6183 3.17 12.9425 2.5 12.1052 2.5C11.2679 2.5 10.592 3.17 10.592 4V4.68C7.69684 5.36 6.05254 7.92 6.05254 11V16L4.75123 17.29C4.1157 17.92 4.55956 19 5.45737 19H18.7429C19.6508 19 20.0946 17.92 19.4591 17.29ZM16.1403 17H8.07009V11C8.07009 8.52 9.59333 6.5 12.1052 6.5C14.617 6.5 16.1403 8.52 16.1403 11V17ZM12.1052 22C13.2148 22 14.1227 21.1 14.1227 20H10.0876C10.0876 21.1 10.9854 22 12.1052 22Z" fill="#000D76"/>
</g>
<defs>
<clipPath id="clip0_1883_636">
<rect width="24.2105" height="24" fill="white"/>
</clipPath>
</defs>
</svg>
