<svg width="27" height="29" viewBox="0 0 27 29" fill="none" xmlns="http://www.w3.org/2000/svg">
<g clip-path="url(#clip0_1630_5928)">
<path d="M6.75 22.9583C6.75 24.2875 7.7625 25.375 9 25.375H18C19.2375 25.375 20.25 24.2875 20.25 22.9583V10.875C20.25 9.54583 19.2375 8.45833 18 8.45833H9C7.7625 8.45833 6.75 9.54583 6.75 10.875V22.9583ZM20.25 4.83333H17.4375L16.6388 3.97542C16.4362 3.75792 16.1438 3.625 15.8512 3.625H11.1487C10.8562 3.625 10.5638 3.75792 10.3612 3.97542L9.5625 4.83333H6.75C6.13125 4.83333 5.625 5.37708 5.625 6.04167C5.625 6.70625 6.13125 7.25 6.75 7.25H20.25C20.8687 7.25 21.375 6.70625 21.375 6.04167C21.375 5.37708 20.8687 4.83333 20.25 4.83333Z" fill="#DC2522"/>
</g>
<defs>
<clipPath id="clip0_1630_5928">
<rect width="27" height="29" fill="white"/>
</clipPath>
</defs>
</svg>
