<svg width="21" height="20" viewBox="0 0 21 20" fill="none" xmlns="http://www.w3.org/2000/svg">
<g clip-path="url(#clip0_3667_690)">
<path d="M6.33333 15C5.41666 15 4.67499 15.75 4.67499 16.6667C4.67499 17.5834 5.41666 18.3334 6.33333 18.3334C7.24999 18.3334 7.99999 17.5834 7.99999 16.6667C7.99999 15.75 7.24999 15 6.33333 15ZM1.33333 2.50002C1.33333 2.95835 1.70833 3.33335 2.16666 3.33335H2.99999L5.99999 9.65835L4.87499 11.6917C4.26666 12.8084 5.06666 14.1667 6.33333 14.1667H15.5C15.9583 14.1667 16.3333 13.7917 16.3333 13.3334C16.3333 12.875 15.9583 12.5 15.5 12.5H6.33333L7.25 10.8334H13.4583C14.0833 10.8334 14.6333 10.4917 14.9167 9.97502L17.9 4.56669C18.2083 4.01669 17.8083 3.33335 17.175 3.33335H4.84166L4.28333 2.14169C4.14999 1.85002 3.84999 1.66669 3.53333 1.66669H2.16666C1.70833 1.66669 1.33333 2.04169 1.33333 2.50002ZM14.6667 15C13.75 15 13.0083 15.75 13.0083 16.6667C13.0083 17.5834 13.75 18.3334 14.6667 18.3334C15.5833 18.3334 16.3333 17.5834 16.3333 16.6667C16.3333 15.75 15.5833 15 14.6667 15Z" fill="#0010A4"/>
</g>
<defs>
<clipPath id="clip0_3667_690">
<rect width="20" height="20" fill="white" transform="translate(0.5)"/>
</clipPath>
</defs>
</svg>
