<svg width="25" height="24" viewBox="0 0 25 24" fill="none" xmlns="http://www.w3.org/2000/svg">
<g clip-path="url(#clip0_3329_6508)">
<path d="M21.5 2.21C21.37 2.21 21.24 2.26 21.15 2.36L20.36 3.15C20.16 3.35 19.85 3.35 19.65 3.15L18.86 2.36C18.66 2.16 18.35 2.16 18.15 2.36L17.36 3.15C17.16 3.35 16.85 3.35 16.65 3.15L15.86 2.36C15.66 2.16 15.35 2.16 15.15 2.36L14.36 3.15C14.16 3.35 13.85 3.35 13.65 3.15L12.86 2.36C12.66 2.16 12.35 2.16 12.15 2.36L11.36 3.15C11.16 3.35 10.85 3.35 10.65 3.15L9.85 2.35C9.65 2.15 9.34 2.15 9.14 2.35L8.35 3.15C8.15 3.35 7.84 3.35 7.64 3.15L6.85 2.35C6.65 2.15 6.34 2.15 6.14 2.35L5.35 3.15C5.15 3.35 4.84 3.35 4.64 3.15L3.85 2.35C3.76 2.26 3.63 2.21 3.5 2.21V21.8C3.63 21.8 3.76 21.75 3.85 21.65L4.64 20.86C4.84 20.66 5.15 20.66 5.35 20.86L6.14 21.65C6.34 21.85 6.65 21.85 6.85 21.65L7.64 20.86C7.84 20.66 8.15 20.66 8.35 20.86L9.14 21.65C9.34 21.85 9.65 21.85 9.85 21.65L10.64 20.86C10.84 20.66 11.15 20.66 11.35 20.86L12.14 21.65C12.34 21.85 12.65 21.85 12.85 21.65L13.64 20.86C13.84 20.66 14.15 20.66 14.35 20.86L15.14 21.65C15.34 21.85 15.65 21.85 15.85 21.65L16.64 20.86C16.84 20.66 17.15 20.66 17.35 20.86L18.14 21.65C18.34 21.85 18.65 21.85 18.85 21.65L19.64 20.86C19.84 20.66 20.15 20.66 20.35 20.86L21.14 21.65C21.24 21.75 21.37 21.8 21.49 21.8V2.21H21.5ZM17.5 17H7.5C6.95 17 6.5 16.55 6.5 16C6.5 15.45 6.95 15 7.5 15H17.5C18.05 15 18.5 15.45 18.5 16C18.5 16.55 18.05 17 17.5 17ZM17.5 13H7.5C6.95 13 6.5 12.55 6.5 12C6.5 11.45 6.95 11 7.5 11H17.5C18.05 11 18.5 11.45 18.5 12C18.5 12.55 18.05 13 17.5 13ZM17.5 9H7.5C6.95 9 6.5 8.55 6.5 8C6.5 7.45 6.95 7 7.5 7H17.5C18.05 7 18.5 7.45 18.5 8C18.5 8.55 18.05 9 17.5 9Z" fill="#FEFDA3"/>
</g>
<defs>
<clipPath id="clip0_3329_6508">
<rect width="24" height="24" fill="white" transform="translate(0.5)"/>
</clipPath>
</defs>
</svg>
