<svg width="20" height="21" viewBox="0 0 20 21" fill="none" xmlns="http://www.w3.org/2000/svg">
<g clip-path="url(#clip0_3667_1023)">
<path d="M17.5 2.29056C17.3917 2.29056 17.2833 2.33223 17.2083 2.41556L16.55 3.07389C16.3833 3.24056 16.125 3.24056 15.9583 3.07389L15.3 2.41556C15.1333 2.24889 14.875 2.24889 14.7083 2.41556L14.05 3.07389C13.8833 3.24056 13.625 3.24056 13.4583 3.07389L12.8 2.41556C12.6333 2.24889 12.375 2.24889 12.2083 2.41556L11.55 3.07389C11.3833 3.24056 11.125 3.24056 10.9583 3.07389L10.3 2.41556C10.1333 2.24889 9.875 2.24889 9.70833 2.41556L9.05 3.07389C8.88333 3.24056 8.625 3.24056 8.45833 3.07389L7.79167 2.40723C7.625 2.24056 7.36667 2.24056 7.2 2.40723L6.54167 3.07389C6.375 3.24056 6.11667 3.24056 5.95 3.07389L5.29167 2.40723C5.125 2.24056 4.86667 2.24056 4.7 2.40723L4.04167 3.07389C3.875 3.24056 3.61667 3.24056 3.45 3.07389L2.79167 2.40723C2.71667 2.33223 2.60833 2.29056 2.5 2.29056V18.6156C2.60833 18.6156 2.71667 18.5739 2.79167 18.4906L3.45 17.8322C3.61667 17.6656 3.875 17.6656 4.04167 17.8322L4.7 18.4906C4.86667 18.6572 5.125 18.6572 5.29167 18.4906L5.95 17.8322C6.11667 17.6656 6.375 17.6656 6.54167 17.8322L7.2 18.4906C7.36667 18.6572 7.625 18.6572 7.79167 18.4906L8.45 17.8322C8.61667 17.6656 8.875 17.6656 9.04167 17.8322L9.7 18.4906C9.86667 18.6572 10.125 18.6572 10.2917 18.4906L10.95 17.8322C11.1167 17.6656 11.375 17.6656 11.5417 17.8322L12.2 18.4906C12.3667 18.6572 12.625 18.6572 12.7917 18.4906L13.45 17.8322C13.6167 17.6656 13.875 17.6656 14.0417 17.8322L14.7 18.4906C14.8667 18.6572 15.125 18.6572 15.2917 18.4906L15.95 17.8322C16.1167 17.6656 16.375 17.6656 16.5417 17.8322L17.2 18.4906C17.2833 18.5739 17.3917 18.6156 17.4917 18.6156V2.29056H17.5ZM14.1667 14.6156H5.83333C5.375 14.6156 5 14.2406 5 13.7822C5 13.3239 5.375 12.9489 5.83333 12.9489H14.1667C14.625 12.9489 15 13.3239 15 13.7822C15 14.2406 14.625 14.6156 14.1667 14.6156ZM14.1667 11.2822H5.83333C5.375 11.2822 5 10.9072 5 10.4489C5 9.99056 5.375 9.61556 5.83333 9.61556H14.1667C14.625 9.61556 15 9.99056 15 10.4489C15 10.9072 14.625 11.2822 14.1667 11.2822ZM14.1667 7.94889H5.83333C5.375 7.94889 5 7.57389 5 7.11556C5 6.65723 5.375 6.28223 5.83333 6.28223H14.1667C14.625 6.28223 15 6.65723 15 7.11556C15 7.57389 14.625 7.94889 14.1667 7.94889Z" fill="#0010A4"/>
</g>
<defs>
<clipPath id="clip0_3667_1023">
<rect width="20" height="20" fill="white" transform="translate(0 0.448975)"/>
</clipPath>
</defs>
</svg>
