<svg width="20" height="20" viewBox="0 0 20 20" fill="none" xmlns="http://www.w3.org/2000/svg">
<g clip-path="url(#clip0_3667_891)">
<path d="M5.83333 15C4.91666 15 4.17499 15.75 4.17499 16.6667C4.17499 17.5833 4.91666 18.3333 5.83333 18.3333C6.74999 18.3333 7.49999 17.5833 7.49999 16.6667C7.49999 15.75 6.74999 15 5.83333 15ZM0.833328 2.49999C0.833328 2.95832 1.20833 3.33332 1.66666 3.33332H2.49999L5.49999 9.65832L4.37499 11.6917C3.76666 12.8083 4.56666 14.1667 5.83333 14.1667H15C15.4583 14.1667 15.8333 13.7917 15.8333 13.3333C15.8333 12.875 15.4583 12.5 15 12.5H5.83333L6.75 10.8333H12.9583C13.5833 10.8333 14.1333 10.4917 14.4167 9.97499L17.4 4.56666C17.7083 4.01666 17.3083 3.33332 16.675 3.33332H4.34166L3.78333 2.14166C3.64999 1.84999 3.34999 1.66666 3.03333 1.66666H1.66666C1.20833 1.66666 0.833328 2.04166 0.833328 2.49999ZM14.1667 15C13.25 15 12.5083 15.75 12.5083 16.6667C12.5083 17.5833 13.25 18.3333 14.1667 18.3333C15.0833 18.3333 15.8333 17.5833 15.8333 16.6667C15.8333 15.75 15.0833 15 14.1667 15Z" fill="#FFFEFE"/>
</g>
<defs>
<clipPath id="clip0_3667_891">
<rect width="20" height="20" fill="white"/>
</clipPath>
</defs>
</svg>
