<svg width="37" height="37" viewBox="0 0 37 37" fill="none" xmlns="http://www.w3.org/2000/svg">
<circle cx="18.5" cy="18.5" r="18" fill="#F06B02" stroke="#FFFEFE"/>
<g clip-path="url(#clip0_575_3296)">
<rect width="19" height="19" transform="translate(9 9)" fill="#F06B02"/>
<path d="M18.5 20.875C19.8117 20.875 20.875 19.8117 20.875 18.5C20.875 17.1883 19.8117 16.125 18.5 16.125C17.1883 16.125 16.125 17.1883 16.125 18.5C16.125 19.8117 17.1883 20.875 18.5 20.875Z" fill="#FFFEFE"/>
<path d="M24.8333 12.1667H22.3238L21.3421 11.0979C21.0492 10.7733 20.6217 10.5833 20.1783 10.5833H16.8217C16.3783 10.5833 15.9508 10.7733 15.65 11.0979L14.6763 12.1667H12.1667C11.2958 12.1667 10.5833 12.8792 10.5833 13.75V23.25C10.5833 24.1208 11.2958 24.8333 12.1667 24.8333H24.8333C25.7042 24.8333 26.4167 24.1208 26.4167 23.25V13.75C26.4167 12.8792 25.7042 12.1667 24.8333 12.1667ZM18.5 22.4583C16.315 22.4583 14.5417 20.685 14.5417 18.5C14.5417 16.315 16.315 14.5417 18.5 14.5417C20.685 14.5417 22.4583 16.315 22.4583 18.5C22.4583 20.685 20.685 22.4583 18.5 22.4583Z" fill="#FFFEFE"/>
</g>
<defs>
<clipPath id="clip0_575_3296">
<rect width="19" height="19" fill="white" transform="translate(9 9)"/>
</clipPath>
</defs>
</svg>
