<svg width="27" height="27" viewBox="0 0 27 27" fill="none" xmlns="http://www.w3.org/2000/svg">
<g clip-path="url(#clip0_624_1999)">
<path d="M20.5876 6.42375C20.1488 5.985 19.4401 5.985 19.0013 6.42375L13.5001 11.9137L7.99881 6.4125C7.56006 5.97375 6.85131 5.97375 6.41256 6.4125C5.97381 6.85125 5.97381 7.56 6.41256 7.99875L11.9138 13.5L6.41256 19.0012C5.97381 19.44 5.97381 20.1487 6.41256 20.5875C6.85131 21.0262 7.56006 21.0262 7.99881 20.5875L13.5001 15.0862L19.0013 20.5875C19.4401 21.0262 20.1488 21.0262 20.5876 20.5875C21.0263 20.1487 21.0263 19.44 20.5876 19.0012L15.0863 13.5L20.5876 7.99875C21.0151 7.57125 21.0151 6.85125 20.5876 6.42375Z" fill="#006E6F"/>
</g>
<defs>
<clipPath id="clip0_624_1999">
<rect width="27" height="27" fill="white"/>
</clipPath>
</defs>
</svg>
