<svg width="36" height="36" viewBox="0 0 36 36" fill="none" xmlns="http://www.w3.org/2000/svg">
<g clip-path="url(#clip0_624_2359)">
<path d="M27.45 8.56496C26.865 7.97996 25.92 7.97996 25.335 8.56496L18 15.885L10.665 8.54996C10.08 7.96496 9.135 7.96496 8.55 8.54996C7.965 9.13496 7.965 10.08 8.55 10.665L15.885 18L8.55 25.335C7.965 25.92 7.965 26.865 8.55 27.45C9.135 28.035 10.08 28.035 10.665 27.45L18 20.115L25.335 27.45C25.92 28.035 26.865 28.035 27.45 27.45C28.035 26.865 28.035 25.92 27.45 25.335L20.115 18L27.45 10.665C28.02 10.095 28.02 9.13496 27.45 8.56496Z" fill="white"/>
</g>
<defs>
<clipPath id="clip0_624_2359">
<rect width="36" height="36" fill="white"/>
</clipPath>
</defs>
</svg>
