<svg width="22" height="23" viewBox="0 0 22 23" fill="none" xmlns="http://www.w3.org/2000/svg">
<g clip-path="url(#clip0_624_1996)">
<path d="M5.50004 17.9167C5.50004 18.925 6.32504 19.75 7.33337 19.75H14.6667C15.675 19.75 16.5 18.925 16.5 17.9167V8.75C16.5 7.74167 15.675 6.91667 14.6667 6.91667H7.33337C6.32504 6.91667 5.50004 7.74167 5.50004 8.75V17.9167ZM16.5 4.16667H14.2084L13.5575 3.51583C13.3925 3.35083 13.1542 3.25 12.9159 3.25H9.08421C8.84587 3.25 8.60754 3.35083 8.44254 3.51583L7.79171 4.16667H5.50004C4.99587 4.16667 4.58337 4.57917 4.58337 5.08333C4.58337 5.5875 4.99587 6 5.50004 6H16.5C17.0042 6 17.4167 5.5875 17.4167 5.08333C17.4167 4.57917 17.0042 4.16667 16.5 4.16667Z" fill="#006E6F"/>
</g>
<defs>
<clipPath id="clip0_624_1996">
<rect width="22" height="22" fill="white" transform="translate(0 0.5)"/>
</clipPath>
</defs>
</svg>
