<svg width="60" height="61" viewBox="0 0 60 61" fill="none" xmlns="http://www.w3.org/2000/svg">
<circle cx="30" cy="30.7637" r="29" stroke="#006E6F" stroke-width="2"/>
<g clip-path="url(#clip0_624_2020)">
<path d="M33.8183 19.3091H21.8183C20.6183 19.3091 19.6365 20.2909 19.6365 21.4909V35.6727C19.6365 36.2727 20.1274 36.7636 20.7274 36.7636C21.3274 36.7636 21.8183 36.2727 21.8183 35.6727V22.5818C21.8183 21.9818 22.3092 21.4909 22.9092 21.4909H33.8183C34.4183 21.4909 34.9092 21 34.9092 20.4C34.9092 19.8 34.4183 19.3091 33.8183 19.3091ZM34.4619 24.3164L39.731 29.5854C40.1347 29.9891 40.3637 30.5454 40.3637 31.1236V41.1273C40.3637 42.3273 39.3819 43.3091 38.1819 43.3091H26.171C24.971 43.3091 24.0001 42.3273 24.0001 41.1273L24.011 25.8545C24.011 24.6545 24.9819 23.6727 26.1819 23.6727H32.9128C33.491 23.6727 34.0474 23.9018 34.4619 24.3164ZM33.8183 31.3091H38.7274L32.7274 25.3091V30.2182C32.7274 30.8182 33.2183 31.3091 33.8183 31.3091Z" fill="#006E6F"/>
</g>
<defs>
<clipPath id="clip0_624_2020">
<rect width="26.1818" height="26.1818" fill="white" transform="translate(17.4547 18.2182)"/>
</clipPath>
</defs>
</svg>
